<svg xmlns="http://www.w3.org/2000/svg" width="64" height="64" viewBox="0 0 64 64">
  <style type="text/css" id="current-color-scheme">
    .ColorScheme-Background { color:#141e12; }
  </style>
  <path id="topleft"     class="ColorScheme-Background" style="fill:currentColor;fill-opacity:0.92" d="M0,16 A16,16 0 0 1 16,0 L16,16 Z"/>
  <rect id="top"         class="ColorScheme-Background" style="fill:currentColor;fill-opacity:0.92" x="16" y="0"  width="32" height="16"/>
  <path id="topright"    class="ColorScheme-Background" style="fill:currentColor;fill-opacity:0.92" d="M48,0 A16,16 0 0 1 64,16 L48,16 Z"/>
  <rect id="left"        class="ColorScheme-Background" style="fill:currentColor;fill-opacity:0.92" x="0"  y="16" width="16" height="32"/>
  <rect id="center"      class="ColorScheme-Background" style="fill:currentColor;fill-opacity:0.92" x="16" y="16" width="32" height="32"/>
  <rect id="right"       class="ColorScheme-Background" style="fill:currentColor;fill-opacity:0.92" x="48" y="16" width="16" height="32"/>
  <path id="bottomleft"  class="ColorScheme-Background" style="fill:currentColor;fill-opacity:0.92" d="M0,48 L16,48 L16,64 A16,16 0 0 1 0,48 Z"/>
  <rect id="bottom"      class="ColorScheme-Background" style="fill:currentColor;fill-opacity:0.92" x="16" y="48" width="32" height="16"/>
  <path id="bottomright" class="ColorScheme-Background" style="fill:currentColor;fill-opacity:0.92" d="M48,48 L64,48 A16,16 0 0 1 48,64 Z"/>
  <rect id="hint-top-margin"    x="70" y="0"  width="1" height="5" style="fill-opacity:0"/>
  <rect id="hint-bottom-margin" x="72" y="0"  width="1" height="5" style="fill-opacity:0"/>
  <rect id="hint-left-margin"   x="74" y="0"  width="8" height="1" style="fill-opacity:0"/>
  <rect id="hint-right-margin"  x="74" y="4"  width="8" height="1" style="fill-opacity:0"/>
</svg>
